HIERARCHY
ROOT Junyuan_V1:Solving:Hips
{
	OFFSET 0.000000 0.000000 0.000000
	CHANNELS 6 Xposition Yposition Zposition Xrotation Yrotation Zrotation
	JOINT Junyuan_V1:Solving:Spine
	{
		OFFSET 0.000000 -11.587388 2.561626
		CHANNELS 6 Xposition Yposition Zposition Xrotation Yrotation Zrotation
		JOINT Junyuan_V1:Solving:Spine1
		{
			OFFSET 0.000000 -9.293384 1.638677
			CHANNELS 6 Xposition Yposition Zposition Xrotation Yrotation Zrotation
			JOINT Junyuan_V1:Solving:Spine2
			{
				OFFSET 0.000000 -9.400841 0.822469
				CHANNELS 6 Xposition Yposition Zposition Xrotation Yrotation Zrotation
				JOINT Junyuan_V1:Solving:Spine3
				{
					OFFSET 0.000000 -9.436749 0.000000
					CHANNELS 6 Xposition Yposition Zposition Xrotation Yrotation Zrotation
					JOINT Junyuan_V1:Solving:Neck
					{
						OFFSET 0.000000 -12.132965 -1.213294
						CHANNELS 6 Xposition Yposition Zposition Xrotation Yrotation Zrotation
						JOINT Junyuan_V1:Solving:Neck1
						{
							OFFSET 0.000000 -6.347839 -0.555364
							CHANNELS 6 Xposition Yposition Zposition Xrotation Yrotation Zrotation
							JOINT Junyuan_V1:Solving:Head
							{
								OFFSET 0.000000 -6.275284 -1.106502
								CHANNELS 6 Xposition Yposition Zposition Xrotation Yrotation Zrotation
								JOINT Junyuan_V1:Solving:HeadEnd
								{
									OFFSET 0.000000 -9.728081 0.000002
									CHANNELS 6 Xposition Yposition Zposition Xrotation Yrotation Zrotation
									End Site
									{
										OFFSET 0.000000 -9.728081 0.000002
									}
								}
							}
						}
					}
					JOINT Junyuan_V1:Solving:RightShoulder
					{
						OFFSET 0.000000 -8.666405 -5.270916
						CHANNELS 6 Xposition Yposition Zposition Xrotation Yrotation Zrotation
						JOINT Junyuan_V1:Solving:RightArm
						{
							OFFSET -19.077805 -0.000008 0.000000
							CHANNELS 6 Xposition Yposition Zposition Xrotation Yrotation Zrotation
							JOINT Junyuan_V1:Solving:RightForeArm
							{
								OFFSET -27.209019 -0.000008 0.000000
								CHANNELS 6 Xposition Yposition Zposition Xrotation Yrotation Zrotation
								JOINT Junyuan_V1:Solving:RightHand
								{
									OFFSET -21.734264 -0.000008 0.000000
									CHANNELS 6 Xposition Yposition Zposition Xrotation Yrotation Zrotation
									JOINT Junyuan_V1:Solving:RightHandThumb1
									{
										OFFSET -3.883522 2.884647 -2.887744
										CHANNELS 6 Xposition Yposition Zposition Xrotation Yrotation Zrotation
										End Site
										{
											OFFSET -5.627335 0.000000 -5.679366
										}
									}
									JOINT Junyuan_V1:Solving:RightHandMiddle1
									{
										OFFSET -10.356049 -0.000004 0.066385
										CHANNELS 6 Xposition Yposition Zposition Xrotation Yrotation Zrotation
										End Site
										{
											OFFSET -7.995132 -0.000004 0.000000
										}
									}
								}
							}
						}
					}
					JOINT Junyuan_V1:Solving:LeftShoulder
					{
						OFFSET 0.000000 -8.666405 -5.270916
						CHANNELS 6 Xposition Yposition Zposition Xrotation Yrotation Zrotation
						JOINT Junyuan_V1:Solving:LeftArm
						{
							OFFSET 19.077805 -0.000008 0.000000
							CHANNELS 6 Xposition Yposition Zposition Xrotation Yrotation Zrotation
							JOINT Junyuan_V1:Solving:LeftForeArm
							{
								OFFSET 27.209019 -0.000008 0.000000
								CHANNELS 6 Xposition Yposition Zposition Xrotation Yrotation Zrotation
								JOINT Junyuan_V1:Solving:LeftHand
								{
									OFFSET 21.734264 -0.000008 0.000000
									CHANNELS 6 Xposition Yposition Zposition Xrotation Yrotation Zrotation
									JOINT Junyuan_V1:Solving:LeftHandThumb1
									{
										OFFSET 3.883522 2.884647 -2.887744
										CHANNELS 6 Xposition Yposition Zposition Xrotation Yrotation Zrotation
										End Site
										{
											OFFSET 5.627335 0.000000 -5.679366
										}
									}
									JOINT Junyuan_V1:Solving:LeftHandMiddle1
									{
										OFFSET 10.356049 -0.000004 0.066385
										CHANNELS 6 Xposition Yposition Zposition Xrotation Yrotation Zrotation
										End Site
										{
											OFFSET 7.995132 -0.000004 0.000000
										}
									}
								}
							}
						}
					}
				}
			}
		}
	}
	JOINT Junyuan_V1:Solving:RightUpLeg
	{
		OFFSET -10.145194 0.000000 0.000000
		CHANNELS 6 Xposition Yposition Zposition Xrotation Yrotation Zrotation
		JOINT Junyuan_V1:Solving:RightLeg
		{
			OFFSET 0.000000 45.059078 -0.000006
			CHANNELS 6 Xposition Yposition Zposition Xrotation Yrotation Zrotation
			JOINT Junyuan_V1:Solving:RightFoot
			{
				OFFSET 0.000000 37.058613 -0.000006
				CHANNELS 6 Xposition Yposition Zposition Xrotation Yrotation Zrotation
				JOINT Junyuan_V1:Solving:RightForeFoot
				{
					OFFSET 0.000000 3.397476 -0.000000
					CHANNELS 6 Xposition Yposition Zposition Xrotation Yrotation Zrotation
					JOINT Junyuan_V1:Solving:RightToeBase
					{
						OFFSET 0.000000 0.000000 -13.305598
						CHANNELS 6 Xposition Yposition Zposition Xrotation Yrotation Zrotation
						JOINT Junyuan_V1:Solving:RightToeBaseEnd
						{
							OFFSET 0.000000 0.000000 -4.190945
							CHANNELS 6 Xposition Yposition Zposition Xrotation Yrotation Zrotation
							End Site
							{
								OFFSET 0.000000 -4.190948 0.000000
							}
						}
					}
				}
			}
		}
	}
	JOINT Junyuan_V1:Solving:LeftUpLeg
	{
		OFFSET 10.145194 0.000000 0.000000
		CHANNELS 6 Xposition Yposition Zposition Xrotation Yrotation Zrotation
		JOINT Junyuan_V1:Solving:LeftLeg
		{
			OFFSET 0.000000 45.059078 -0.000006
			CHANNELS 6 Xposition Yposition Zposition Xrotation Yrotation Zrotation
			JOINT Junyuan_V1:Solving:LeftFoot
			{
				OFFSET 0.000000 37.058613 -0.000006
				CHANNELS 6 Xposition Yposition Zposition Xrotation Yrotation Zrotation
				JOINT Junyuan_V1:Solving:LeftForeFoot
				{
					OFFSET 0.000000 3.397476 -0.000000
					CHANNELS 6 Xposition Yposition Zposition Xrotation Yrotation Zrotation
					JOINT Junyuan_V1:Solving:LeftToeBase
					{
						OFFSET 0.000000 0.000000 -13.305598
						CHANNELS 6 Xposition Yposition Zposition Xrotation Yrotation Zrotation
						JOINT Junyuan_V1:Solving:LeftToeBaseEnd
						{
							OFFSET 0.000000 0.000000 -4.652039
							CHANNELS 6 Xposition Yposition Zposition Xrotation Yrotation Zrotation
							End Site
							{
								OFFSET 0.000000 -4.652039 0.000000
							}
						}
					}
				}
			}
		}
	}
}
MOTION
Frames: 4
Frame Time: 0.041667
-32.614746 72.031128 -86.648712 -125.371701 23.510896 -160.452987 0.000007 -11.587382 2.561651 21.386892 2.181926 0.894828 -0.000002 -9.293375 1.638679 10.639708 0.285404 -0.902260 0.000006 -9.400852 0.822467 14.015472 -1.376577 3.942767 -0.000012 -9.436747 -0.000008 -0.459361 -1.310037 3.606060 -0.000002 -12.132950 -1.213301 -3.335725 1.710557 -7.249442 0.000001 -6.347829 -0.555369 -1.936398 -4.130756 15.592977 0.000003 -6.275280 -1.106518 -3.750769 -0.524570 1.154933 -0.000004 -9.728065 -0.000022 -0.000001 -0.000000 0.000000 0.000006 -8.666393 -5.270937 -0.000002 6.917188 8.356350 -19.077806 -0.000010 -0.000002 -11.271729 -50.768793 -83.653042 -27.209017 0.000004 -0.000007 -142.947827 -78.827548 -143.473478 -21.734247 -0.000009 -0.000004 -6.928846 -13.254653 -27.924813 -3.883511 2.884624 -2.887755 0.000003 -0.000000 0.000004 -10.356055 -0.000024 0.066382 0.000003 -0.000000 0.000001 0.000009 -8.666401 -5.270936 -0.000006 -13.028430 -16.082416 19.077824 -0.000003 -0.000004 -0.214672 52.198146 75.989324 27.209007 -0.000020 -0.000002 -163.151622 62.583596 164.953112 21.734280 -0.000015 -0.000006 -3.144165 12.217838 14.550813 3.883533 2.884664 -2.887762 0.000012 0.000007 -0.000006 10.356066 -0.000007 0.066377 0.000008 0.000004 -0.000007 -10.145184 0.000018 0.000018 -42.669189 10.711627 2.960951 0.000004 45.059078 -0.000017 3.915210 -0.000000 -0.000001 -0.000001 37.058609 -0.000002 8.892566 -4.193568 5.036117 0.000002 3.397468 0.000008 0.000000 0.000001 -0.000000 0.000000 0.000002 -13.305605 6.479287 0.000002 0.000000 -0.000003 0.000000 -4.190952 -0.000000 0.000002 -0.000003 10.145191 0.000004 0.000025 -43.945068 -9.125353 -5.599571 0.000009 45.059067 -0.000010 8.187534 -0.000004 -0.000000 0.000018 37.058598 0.000010 -2.299615 -7.361150 12.974435 0.000014 3.397476 -0.000007 0.000000 0.000007 0.000002 -0.000003 -0.000005 -13.305606 18.760522 0.000008 -0.000004 0.000009 -0.000008 -4.652041 -0.000000 0.000004 -0.000002 
-32.639439 72.064499 -86.653069 -125.314956 23.509062 -160.596585 -0.000013 -11.587364 2.561611 21.430835 2.202922 0.856758 -0.000006 -9.293391 1.638696 10.591448 0.300105 -0.920404 -0.000001 -9.400841 0.822468 13.860529 -1.212277 4.075766 -0.000005 -9.436749 0.000002 -0.404594 -1.207194 3.803766 0.000001 -12.132948 -1.213296 -2.674299 1.550381 -7.677992 0.000001 -6.347838 -0.555357 -3.166041 -4.356367 16.027541 0.000007 -6.275286 -1.106490 -3.956282 -0.541276 1.197124 0.000006 -9.728081 -0.000011 -0.000001 -0.000001 0.000003 0.000005 -8.666389 -5.270922 -0.000004 6.729177 8.163484 -19.077812 -0.000008 -0.000011 -11.402478 -51.240882 -83.803628 -27.209005 0.000013 -0.000007 -132.592318 -77.598148 -133.266840 -21.734274 -0.000025 0.000007 -6.853146 -12.921634 -28.255818 -3.883525 2.884616 -2.887762 -0.000003 -0.000007 0.000005 -10.356049 -0.000044 0.066377 0.000002 0.000003 -0.000000 0.000000 -8.666405 -5.270924 -0.000008 -13.022916 -16.135801 19.077801 -0.000003 -0.000009 -0.419174 51.283249 76.201525 27.209007 -0.000016 -0.000001 -150.077069 59.830715 153.545207 21.734266 -0.000006 -0.000006 -3.046650 8.483348 19.838872 3.883526 2.884648 -2.887750 -0.000003 0.000002 -0.000005 10.356050 -0.000029 0.066379 -0.000003 0.000001 0.000002 -10.145206 0.000019 -0.000014 -42.804594 10.750038 3.089948 -0.000018 45.059074 -0.000002 4.201158 0.000000 -0.000000 -0.000002 37.058617 0.000005 8.790366 -4.311978 5.076842 0.000004 3.397476 -0.000001 0.000000 -0.000001 0.000000 0.000004 -0.000000 -13.305594 6.449159 0.000002 0.000001 -0.000000 -0.000000 -4.190942 -0.000002 0.000008 -0.000001 10.145191 0.000018 -0.000006 -43.696839 -9.284364 -5.483613 0.000018 45.059063 -0.000021 7.796631 0.000007 -0.000000 0.000012 37.058594 -0.000002 -2.114134 -7.270929 13.004255 -0.000004 3.397484 -0.000001 0.000001 0.000001 0.000003 0.000003 0.000006 -13.305597 18.693512 0.000005 -0.000001 0.000012 0.000015 -4.652036 -0.000001 -0.000003 0.000000 
-32.663635 72.103416 -86.653625 -125.278647 23.512043 -160.725539 -0.000014 -11.587378 2.561615 21.484929 2.220533 0.802066 0.000006 -9.293376 1.638679 10.555279 0.318234 -0.949163 0.000002 -9.400844 0.822478 13.720106 -1.018703 4.208703 -0.000000 -9.436751 0.000024 -0.367167 -1.084438 4.059596 0.000007 -12.132939 -1.213282 -1.824196 1.326226 -8.202054 0.000005 -6.347841 -0.555369 -4.583824 -4.633203 16.514125 0.000006 -6.275295 -1.106503 -4.199902 -0.547660 1.198329 -0.000008 -9.728081 0.000004 0.000001 -0.000001 0.000001 0.000005 -8.666412 -5.270900 -0.000004 6.501611 7.898934 -19.077806 0.000002 -0.000012 -11.412312 -51.419221 -83.831167 -27.209015 -0.000012 -0.000013 -129.494335 -77.139740 -130.210248 -21.734236 -0.000015 0.000001 -6.759307 -12.882155 -27.995936 -3.883526 2.884627 -2.887752 -0.000003 0.000007 0.000005 -10.356071 -0.000047 0.066382 0.000004 0.000004 -0.000000 -0.000001 -8.666420 -5.270894 -0.000006 -13.117720 -16.231005 19.077816 0.000001 -0.000000 -0.616407 50.843300 76.348838 27.209007 -0.000014 -0.000023 -144.662915 58.171444 148.935280 21.734274 -0.000016 -0.000005 -2.692403 6.722035 21.887751 3.883516 2.884660 -2.887767 -0.000002 -0.000003 0.000001 10.356058 -0.000005 0.066384 -0.000002 0.000000 0.000002 -10.145205 0.000015 -0.000006 -42.965728 10.829140 3.226974 0.000006 45.059074 -0.000004 4.499329 -0.000003 -0.000001 0.000005 37.058605 -0.000006 8.667853 -4.461689 5.106680 0.000013 3.397476 -0.000001 -0.000000 -0.000002 -0.000001 -0.000002 0.000003 -13.305601 6.450397 0.000002 0.000002 0.000003 0.000008 -4.190945 0.000001 -0.000001 0.000002 10.145188 0.000019 -0.000002 -43.477142 -9.423390 -5.361294 0.000013 45.059082 0.000002 7.425559 -0.000001 -0.000002 0.000005 37.058624 -0.000007 -1.947074 -7.215390 13.045224 0.000002 3.397476 0.000013 0.000000 0.000000 0.000002 -0.000016 0.000014 -13.305595 18.685473 0.000004 0.000000 0.000009 0.000008 -4.652049 0.000001 0.000004 -0.000000 
-32.680367 72.153305 -86.652397 -125.264454 23.495933 -160.841024 0.000010 -11.587385 2.561626 21.543468 2.242219 0.755362 0.000003 -9.293389 1.638674 10.548122 0.334744 -0.971136 -0.000003 -9.400859 0.822477 13.572281 -0.826855 4.346631 0.000004 -9.436738 0.000004 -0.375884 -0.963116 4.299135 -0.000013 -12.132951 -1.213305 -0.898551 1.079090 -8.696512 -0.000003 -6.347836 -0.555367 -6.020591 -4.957322 16.948730 -0.000005 -6.275294 -1.106507 -4.442242 -0.560490 1.207402 -0.000008 -9.728088 -0.000002 0.000004 0.000000 0.000000 -0.000009 -8.666393 -5.270928 -0.000007 6.238210 7.628783 -19.077805 0.000007 -0.000012 -11.278222 -51.144504 -83.729896 -27.209015 0.000016 -0.000005 -133.530526 -77.685998 -134.196674 -21.734261 -0.000004 0.000012 -6.789296 -13.179092 -27.572374 -3.883510 2.884643 -2.887775 -0.000005 -0.000010 0.000005 -10.356056 -0.000024 0.066380 -0.000003 -0.000001 0.000000 -0.000017 -8.666405 -5.270923 -0.000006 -13.235991 -16.312138 19.077810 0.000002 -0.000012 -0.620340 50.812786 76.344938 27.209013 0.000004 -0.000004 -143.024735 57.601656 147.556347 21.734272 -0.000001 -0.000002 -2.516622 6.183889 22.196303 3.883528 2.884640 -2.887743 0.000001 -0.000002 -0.000002 10.356070 -0.000003 0.066390 -0.000001 0.000002 -0.000002 -10.145185 -0.000002 0.000005 -43.118714 10.699660 3.336775 -0.000009 45.059109 0.000009 4.732815 -0.000003 -0.000000 0.000004 37.058601 -0.000013 8.594312 -4.410959 5.116891 -0.000000 3.397476 0.000004 0.000000 0.000001 -0.000001 -0.000007 -0.000001 -13.305608 6.442938 0.000007 -0.000000 0.000001 -0.000008 -4.190934 0.000000 0.000002 -0.000000 10.145201 0.000007 0.000009 -43.303068 -9.569640 -5.252960 0.000006 45.059078 -0.000005 7.071604 0.000002 -0.000001 0.000026 37.058617 0.000004 -1.780570 -7.146255 13.101782 0.000021 3.397476 0.000006 0.000000 0.000001 0.000002 0.000006 0.000006 -13.305601 18.660987 0.000007 -0.000002 -0.000001 0.000015 -4.652040 -0.000000 0.000003 0.000001 
